<?xml version="1.0" encoding="utf-8" standalone="no"?>
<!DOCTYPE svg PUBLIC "-//W3C//DTD SVG 1.1//EN"
  "http://www.w3.org/Graphics/SVG/1.1/DTD/svg11.dtd">
<svg xmlns:xlink="http://www.w3.org/1999/xlink" width="283.2pt" height="258.797812pt" viewBox="0 0 283.2 258.797812" xmlns="http://www.w3.org/2000/svg" version="1.1">
 <metadata>
  <rdf:RDF xmlns:dc="http://purl.org/dc/elements/1.1/" xmlns:cc="http://creativecommons.org/ns#" xmlns:rdf="http://www.w3.org/1999/02/22-rdf-syntax-ns#">
   <cc:Work>
    <dc:type rdf:resource="http://purl.org/dc/dcmitype/StillImage"/>
    <dc:date>2026-06-05T22:44:15.069650</dc:date>
    <dc:format>image/svg+xml</dc:format>
    <dc:creator>
     <cc:Agent>
      <dc:title>Matplotlib v3.10.9, https://matplotlib.org/</dc:title>
     </cc:Agent>
    </dc:creator>
   </cc:Work>
  </rdf:RDF>
 </metadata>
 <defs>
  <style type="text/css">*{stroke-linejoin: round; stroke-linecap: butt}</style>
 </defs>
 <g id="figure_1">
  <g id="patch_1">
   <path d="M 0 258.797812 
L 283.2 258.797812 
L 283.2 0 
L 0 0 
z
" style="fill: #ffffff"/>
  </g>
  <g id="axes_1">
   <g id="patch_2">
    <path d="M 141.6 164.237812 
C 145.16433 164.237812 148.583153 162.821689 151.103515 160.301328 
C 153.623877 157.780966 155.04 154.362142 155.04 150.797812 
C 155.04 147.233483 153.623877 143.814659 151.103515 141.294297 
C 148.583153 138.773936 145.16433 137.357812 141.6 137.357812 
C 138.03567 137.357812 134.616847 138.773936 132.096485 141.294297 
C 129.576123 143.814659 128.16 147.233483 128.16 150.797812 
C 128.16 154.362142 129.576123 157.780966 132.096485 160.301328 
C 134.616847 162.821689 138.03567 164.237812 141.6 164.237812 
z
" clip-path="url(#p2926ad49b9)" style="fill: #e2e8f0; stroke: #1a1a2e; stroke-width: 1.5; stroke-linejoin: miter"/>
   </g>
   <g id="text_1">
    <!-- Object in Freefall -->
    <g style="fill: #1a1a2e" transform="translate(73.887031 17.837812) scale(0.14 -0.14)">
     <defs>
      <path id="DejaVuSans-Bold-4f" d="M 2719 3878 
Q 2169 3878 1866 3472 
Q 1563 3066 1563 2328 
Q 1563 1594 1866 1187 
Q 2169 781 2719 781 
Q 3272 781 3575 1187 
Q 3878 1594 3878 2328 
Q 3878 3066 3575 3472 
Q 3272 3878 2719 3878 
z
M 2719 4750 
Q 3844 4750 4481 4106 
Q 5119 3463 5119 2328 
Q 5119 1197 4481 553 
Q 3844 -91 2719 -91 
Q 1597 -91 958 553 
Q 319 1197 319 2328 
Q 319 3463 958 4106 
Q 1597 4750 2719 4750 
z
" transform="scale(0.015625)"/>
      <path id="DejaVuSans-Bold-62" d="M 2400 722 
Q 2759 722 2948 984 
Q 3138 1247 3138 1747 
Q 3138 2247 2948 2509 
Q 2759 2772 2400 2772 
Q 2041 2772 1848 2508 
Q 1656 2244 1656 1747 
Q 1656 1250 1848 986 
Q 2041 722 2400 722 
z
M 1656 2988 
Q 1888 3294 2169 3439 
Q 2450 3584 2816 3584 
Q 3463 3584 3878 3070 
Q 4294 2556 4294 1747 
Q 4294 938 3878 423 
Q 3463 -91 2816 -91 
Q 2450 -91 2169 54 
Q 1888 200 1656 506 
L 1656 0 
L 538 0 
L 538 4863 
L 1656 4863 
L 1656 2988 
z
" transform="scale(0.015625)"/>
      <path id="DejaVuSans-Bold-6a" d="M 538 3500 
L 1656 3500 
L 1656 63 
Q 1656 -641 1318 -1011 
Q 981 -1381 341 -1381 
L -213 -1381 
L -213 -647 
L -19 -647 
Q 300 -647 419 -503 
Q 538 -359 538 63 
L 538 3500 
z
M 538 4863 
L 1656 4863 
L 1656 3950 
L 538 3950 
L 538 4863 
z
" transform="scale(0.015625)"/>
      <path id="DejaVuSans-Bold-65" d="M 4031 1759 
L 4031 1441 
L 1416 1441 
Q 1456 1047 1700 850 
Q 1944 653 2381 653 
Q 2734 653 3104 758 
Q 3475 863 3866 1075 
L 3866 213 
Q 3469 63 3072 -14 
Q 2675 -91 2278 -91 
Q 1328 -91 801 392 
Q 275 875 275 1747 
Q 275 2603 792 3093 
Q 1309 3584 2216 3584 
Q 3041 3584 3536 3087 
Q 4031 2591 4031 1759 
z
M 2881 2131 
Q 2881 2450 2695 2645 
Q 2509 2841 2209 2841 
Q 1884 2841 1681 2658 
Q 1478 2475 1428 2131 
L 2881 2131 
z
" transform="scale(0.015625)"/>
      <path id="DejaVuSans-Bold-63" d="M 3366 3391 
L 3366 2478 
Q 3138 2634 2908 2709 
Q 2678 2784 2431 2784 
Q 1963 2784 1702 2511 
Q 1441 2238 1441 1747 
Q 1441 1256 1702 982 
Q 1963 709 2431 709 
Q 2694 709 2930 787 
Q 3166 866 3366 1019 
L 3366 103 
Q 3103 6 2833 -42 
Q 2563 -91 2291 -91 
Q 1344 -91 809 395 
Q 275 881 275 1747 
Q 275 2613 809 3098 
Q 1344 3584 2291 3584 
Q 2566 3584 2833 3536 
Q 3100 3488 3366 3391 
z
" transform="scale(0.015625)"/>
      <path id="DejaVuSans-Bold-74" d="M 1759 4494 
L 1759 3500 
L 2913 3500 
L 2913 2700 
L 1759 2700 
L 1759 1216 
Q 1759 972 1856 886 
Q 1953 800 2241 800 
L 2816 800 
L 2816 0 
L 1856 0 
Q 1194 0 917 276 
Q 641 553 641 1216 
L 641 2700 
L 84 2700 
L 84 3500 
L 641 3500 
L 641 4494 
L 1759 4494 
z
" transform="scale(0.015625)"/>
      <path id="DejaVuSans-Bold-20" transform="scale(0.015625)"/>
      <path id="DejaVuSans-Bold-69" d="M 538 3500 
L 1656 3500 
L 1656 0 
L 538 0 
L 538 3500 
z
M 538 4863 
L 1656 4863 
L 1656 3950 
L 538 3950 
L 538 4863 
z
" transform="scale(0.015625)"/>
      <path id="DejaVuSans-Bold-6e" d="M 4056 2131 
L 4056 0 
L 2931 0 
L 2931 347 
L 2931 1631 
Q 2931 2084 2911 2256 
Q 2891 2428 2841 2509 
Q 2775 2619 2662 2680 
Q 2550 2741 2406 2741 
Q 2056 2741 1856 2470 
Q 1656 2200 1656 1722 
L 1656 0 
L 538 0 
L 538 3500 
L 1656 3500 
L 1656 2988 
Q 1909 3294 2193 3439 
Q 2478 3584 2822 3584 
Q 3428 3584 3742 3212 
Q 4056 2841 4056 2131 
z
" transform="scale(0.015625)"/>
      <path id="DejaVuSans-Bold-46" d="M 588 4666 
L 3834 4666 
L 3834 3756 
L 1791 3756 
L 1791 2888 
L 3713 2888 
L 3713 1978 
L 1791 1978 
L 1791 0 
L 588 0 
L 588 4666 
z
" transform="scale(0.015625)"/>
      <path id="DejaVuSans-Bold-72" d="M 3138 2547 
Q 2991 2616 2845 2648 
Q 2700 2681 2553 2681 
Q 2122 2681 1889 2404 
Q 1656 2128 1656 1613 
L 1656 0 
L 538 0 
L 538 3500 
L 1656 3500 
L 1656 2925 
Q 1872 3269 2151 3426 
Q 2431 3584 2822 3584 
Q 2878 3584 2943 3579 
Q 3009 3575 3134 3559 
L 3138 2547 
z
" transform="scale(0.015625)"/>
      <path id="DejaVuSans-Bold-66" d="M 2841 4863 
L 2841 4128 
L 2222 4128 
Q 1984 4128 1890 4042 
Q 1797 3956 1797 3744 
L 1797 3500 
L 2753 3500 
L 2753 2700 
L 1797 2700 
L 1797 0 
L 678 0 
L 678 2700 
L 122 2700 
L 122 3500 
L 678 3500 
L 678 3744 
Q 678 4316 997 4589 
Q 1316 4863 1984 4863 
L 2841 4863 
z
" transform="scale(0.015625)"/>
      <path id="DejaVuSans-Bold-61" d="M 2106 1575 
Q 1756 1575 1579 1456 
Q 1403 1338 1403 1106 
Q 1403 894 1545 773 
Q 1688 653 1941 653 
Q 2256 653 2472 879 
Q 2688 1106 2688 1447 
L 2688 1575 
L 2106 1575 
z
M 3816 1997 
L 3816 0 
L 2688 0 
L 2688 519 
Q 2463 200 2181 54 
Q 1900 -91 1497 -91 
Q 953 -91 614 226 
Q 275 544 275 1050 
Q 275 1666 698 1953 
Q 1122 2241 2028 2241 
L 2688 2241 
L 2688 2328 
Q 2688 2594 2478 2717 
Q 2269 2841 1825 2841 
Q 1466 2841 1156 2769 
Q 847 2697 581 2553 
L 581 3406 
Q 941 3494 1303 3539 
Q 1666 3584 2028 3584 
Q 2975 3584 3395 3211 
Q 3816 2838 3816 1997 
z
" transform="scale(0.015625)"/>
      <path id="DejaVuSans-Bold-6c" d="M 538 4863 
L 1656 4863 
L 1656 0 
L 538 0 
L 538 4863 
z
" transform="scale(0.015625)"/>
     </defs>
     <use xlink:href="#DejaVuSans-Bold-4f"/>
     <use xlink:href="#DejaVuSans-Bold-62" transform="translate(85.009766 0)"/>
     <use xlink:href="#DejaVuSans-Bold-6a" transform="translate(156.591797 0)"/>
     <use xlink:href="#DejaVuSans-Bold-65" transform="translate(190.869141 0)"/>
     <use xlink:href="#DejaVuSans-Bold-63" transform="translate(258.691406 0)"/>
     <use xlink:href="#DejaVuSans-Bold-74" transform="translate(317.96875 0)"/>
     <use xlink:href="#DejaVuSans-Bold-20" transform="translate(365.771484 0)"/>
     <use xlink:href="#DejaVuSans-Bold-69" transform="translate(400.585938 0)"/>
     <use xlink:href="#DejaVuSans-Bold-6e" transform="translate(434.863281 0)"/>
     <use xlink:href="#DejaVuSans-Bold-20" transform="translate(506.054688 0)"/>
     <use xlink:href="#DejaVuSans-Bold-46" transform="translate(540.869141 0)"/>
     <use xlink:href="#DejaVuSans-Bold-72" transform="translate(602.804688 0)"/>
     <use xlink:href="#DejaVuSans-Bold-65" transform="translate(652.121094 0)"/>
     <use xlink:href="#DejaVuSans-Bold-65" transform="translate(719.943359 0)"/>
     <use xlink:href="#DejaVuSans-Bold-66" transform="translate(787.765625 0)"/>
     <use xlink:href="#DejaVuSans-Bold-61" transform="translate(831.271484 0)"/>
     <use xlink:href="#DejaVuSans-Bold-6c" transform="translate(898.751953 0)"/>
     <use xlink:href="#DejaVuSans-Bold-6c" transform="translate(933.029297 0)"/>
    </g>
   </g>
   <g id="text_2">
    <!-- m -->
    <g style="fill: #1a1a2e" transform="translate(136.389844 153.557187) scale(0.1 -0.1)">
     <defs>
      <path id="DejaVuSans-Bold-6d" d="M 3781 2919 
Q 3994 3244 4286 3414 
Q 4578 3584 4928 3584 
Q 5531 3584 5847 3212 
Q 6163 2841 6163 2131 
L 6163 0 
L 5038 0 
L 5038 1825 
Q 5041 1866 5042 1909 
Q 5044 1953 5044 2034 
Q 5044 2406 4934 2573 
Q 4825 2741 4581 2741 
Q 4263 2741 4089 2478 
Q 3916 2216 3909 1719 
L 3909 0 
L 2784 0 
L 2784 1825 
Q 2784 2406 2684 2573 
Q 2584 2741 2328 2741 
Q 2006 2741 1831 2477 
Q 1656 2213 1656 1722 
L 1656 0 
L 531 0 
L 531 3500 
L 1656 3500 
L 1656 2988 
Q 1863 3284 2130 3434 
Q 2397 3584 2719 3584 
Q 3081 3584 3359 3409 
Q 3638 3234 3781 2919 
z
" transform="scale(0.015625)"/>
     </defs>
     <use xlink:href="#DejaVuSans-Bold-6d"/>
    </g>
   </g>
   <g id="patch_3">
    <path d="M 141.6 152.795273 
Q 141.6 184.395662 141.6 213.200965 
" style="fill: none; stroke: #1b365d; stroke-width: 2.5; stroke-linecap: round"/>
    <path d="M 144.6 207.200965 
L 141.6 213.200965 
L 138.6 207.200965 
" style="fill: none; stroke: #1b365d; stroke-width: 2.5; stroke-linecap: round"/>
   </g>
   <g id="text_3">
    <!-- $F_g = mg$ -->
    <g style="fill: #1b365d" transform="translate(138.95 186.497812) scale(0.1 -0.1)">
     <defs>
      <path id="DejaVuSans-Oblique-46" d="M 1081 4666 
L 3756 4666 
L 3653 4134 
L 1606 4134 
L 1338 2759 
L 3188 2759 
L 3084 2228 
L 1234 2228 
L 800 0 
L 172 0 
L 1081 4666 
z
" transform="scale(0.015625)"/>
      <path id="DejaVuSans-Oblique-67" d="M 3816 3500 
L 3219 434 
Q 3047 -456 2561 -893 
Q 2075 -1331 1253 -1331 
Q 950 -1331 690 -1286 
Q 431 -1241 206 -1147 
L 313 -588 
Q 525 -725 762 -790 
Q 1000 -856 1269 -856 
Q 1816 -856 2167 -557 
Q 2519 -259 2631 300 
L 2681 563 
Q 2441 288 2122 144 
Q 1803 0 1434 0 
Q 903 0 598 351 
Q 294 703 294 1319 
Q 294 1803 478 2267 
Q 663 2731 997 3091 
Q 1219 3328 1514 3456 
Q 1809 3584 2131 3584 
Q 2484 3584 2746 3420 
Q 3009 3256 3138 2956 
L 3238 3500 
L 3816 3500 
z
M 2950 2216 
Q 2950 2641 2750 2872 
Q 2550 3103 2181 3103 
Q 1953 3103 1747 3012 
Q 1541 2922 1394 2759 
Q 1156 2491 1023 2127 
Q 891 1763 891 1375 
Q 891 944 1092 712 
Q 1294 481 1672 481 
Q 2219 481 2584 976 
Q 2950 1472 2950 2216 
z
" transform="scale(0.015625)"/>
      <path id="DejaVuSans-3d" d="M 678 2906 
L 4684 2906 
L 4684 2381 
L 678 2381 
L 678 2906 
z
M 678 1631 
L 4684 1631 
L 4684 1100 
L 678 1100 
L 678 1631 
z
" transform="scale(0.015625)"/>
      <path id="DejaVuSans-Oblique-6d" d="M 5747 2113 
L 5338 0 
L 4763 0 
L 5166 2094 
Q 5191 2228 5203 2325 
Q 5216 2422 5216 2491 
Q 5216 2772 5059 2928 
Q 4903 3084 4622 3084 
Q 4203 3084 3875 2770 
Q 3547 2456 3450 1953 
L 3066 0 
L 2491 0 
L 2900 2094 
Q 2925 2209 2937 2307 
Q 2950 2406 2950 2484 
Q 2950 2769 2794 2926 
Q 2638 3084 2363 3084 
Q 1938 3084 1609 2770 
Q 1281 2456 1184 1953 
L 800 0 
L 225 0 
L 909 3500 
L 1484 3500 
L 1375 2956 
Q 1609 3263 1923 3423 
Q 2238 3584 2597 3584 
Q 2978 3584 3223 3384 
Q 3469 3184 3519 2828 
Q 3781 3197 4126 3390 
Q 4472 3584 4856 3584 
Q 5306 3584 5551 3325 
Q 5797 3066 5797 2591 
Q 5797 2488 5784 2364 
Q 5772 2241 5747 2113 
z
" transform="scale(0.015625)"/>
     </defs>
     <use xlink:href="#DejaVuSans-Oblique-46" transform="translate(0 0.09375)"/>
     <use xlink:href="#DejaVuSans-Oblique-67" transform="translate(57.519531 -16.3125) scale(0.7)"/>
     <use xlink:href="#DejaVuSans-3d" transform="translate(124.169922 0.09375)"/>
     <use xlink:href="#DejaVuSans-Oblique-6d" transform="translate(227.441406 0.09375)"/>
     <use xlink:href="#DejaVuSans-Oblique-67" transform="translate(324.853516 0.09375)"/>
    </g>
   </g>
  </g>
 </g>
 <defs>
  <clipPath id="p2926ad49b9">
   <rect x="7.2" y="29.837812" width="268.8" height="221.76"/>
  </clipPath>
 </defs>
</svg>
