<?xml version="1.0" encoding="utf-8" standalone="no"?>
<!DOCTYPE svg PUBLIC "-//W3C//DTD SVG 1.1//EN"
  "http://www.w3.org/Graphics/SVG/1.1/DTD/svg11.dtd">
<svg xmlns:xlink="http://www.w3.org/1999/xlink" width="384.53875pt" height="291.089687pt" viewBox="0 0 384.53875 291.089687" xmlns="http://www.w3.org/2000/svg" version="1.1">
 <metadata>
  <rdf:RDF xmlns:dc="http://purl.org/dc/elements/1.1/" xmlns:cc="http://creativecommons.org/ns#" xmlns:rdf="http://www.w3.org/1999/02/22-rdf-syntax-ns#">
   <cc:Work>
    <dc:type rdf:resource="http://purl.org/dc/dcmitype/StillImage"/>
    <dc:date>2026-06-04T18:57:02.896723</dc:date>
    <dc:format>image/svg+xml</dc:format>
    <dc:creator>
     <cc:Agent>
      <dc:title>Matplotlib v3.10.9, https://matplotlib.org/</dc:title>
     </cc:Agent>
    </dc:creator>
   </cc:Work>
  </rdf:RDF>
 </metadata>
 <defs>
  <style type="text/css">*{stroke-linejoin: round; stroke-linecap: butt}</style>
 </defs>
 <g id="figure_1">
  <g id="patch_1">
   <path d="M 0 291.089687 
L 384.53875 291.089687 
L 384.53875 0 
L 0 0 
z
" style="fill: #ffffff"/>
  </g>
  <g id="axes_1">
   <g id="patch_2">
    <path d="M 42.53875 251.597812 
L 377.33875 251.597812 
L 377.33875 29.837812 
L 42.53875 29.837812 
z
" style="fill: #ffffff"/>
   </g>
   <g id="matplotlib.axis_1">
    <g id="xtick_1">
     <g id="line2d_1">
      <path d="M 71.591643 251.597812 
L 71.591643 29.837812 
" clip-path="url(#p5d5403a846)" style="fill: none; stroke-dasharray: 2.96,1.28; stroke-dashoffset: 0; stroke: #e2e8f0; stroke-opacity: 0.3; stroke-width: 0.8"/>
     </g>
     <g id="line2d_2">
      <defs>
       <path id="m7495d12d21" d="M 0 0 
L 0 3.5 
" style="stroke: #000000; stroke-width: 0.8"/>
      </defs>
      <g>
       <use xlink:href="#m7495d12d21" x="71.591643" y="251.597812" style="stroke: #000000; stroke-width: 0.8"/>
      </g>
     </g>
     <g id="text_1">
      <!-- 12 -->
      <g transform="translate(65.229143 266.19625) scale(0.1 -0.1)">
       <defs>
        <path id="DejaVuSans-31" d="M 794 531 
L 1825 531 
L 1825 4091 
L 703 3866 
L 703 4441 
L 1819 4666 
L 2450 4666 
L 2450 531 
L 3481 531 
L 3481 0 
L 794 0 
L 794 531 
z
" transform="scale(0.015625)"/>
        <path id="DejaVuSans-32" d="M 1228 531 
L 3431 531 
L 3431 0 
L 469 0 
L 469 531 
Q 828 903 1448 1529 
Q 2069 2156 2228 2338 
Q 2531 2678 2651 2914 
Q 2772 3150 2772 3378 
Q 2772 3750 2511 3984 
Q 2250 4219 1831 4219 
Q 1534 4219 1204 4116 
Q 875 4013 500 3803 
L 500 4441 
Q 881 4594 1212 4672 
Q 1544 4750 1819 4750 
Q 2544 4750 2975 4387 
Q 3406 4025 3406 3419 
Q 3406 3131 3298 2873 
Q 3191 2616 2906 2266 
Q 2828 2175 2409 1742 
Q 1991 1309 1228 531 
z
" transform="scale(0.015625)"/>
       </defs>
       <use xlink:href="#DejaVuSans-31"/>
       <use xlink:href="#DejaVuSans-32" transform="translate(63.623047 0)"/>
      </g>
     </g>
    </g>
    <g id="xtick_2">
     <g id="line2d_3">
      <path d="M 126.930486 251.597812 
L 126.930486 29.837812 
" clip-path="url(#p5d5403a846)" style="fill: none; stroke-dasharray: 2.96,1.28; stroke-dashoffset: 0; stroke: #e2e8f0; stroke-opacity: 0.3; stroke-width: 0.8"/>
     </g>
     <g id="line2d_4">
      <g>
       <use xlink:href="#m7495d12d21" x="126.930486" y="251.597812" style="stroke: #000000; stroke-width: 0.8"/>
      </g>
     </g>
     <g id="text_2">
      <!-- 14 -->
      <g transform="translate(120.567986 266.19625) scale(0.1 -0.1)">
       <defs>
        <path id="DejaVuSans-34" d="M 2419 4116 
L 825 1625 
L 2419 1625 
L 2419 4116 
z
M 2253 4666 
L 3047 4666 
L 3047 1625 
L 3713 1625 
L 3713 1100 
L 3047 1100 
L 3047 0 
L 2419 0 
L 2419 1100 
L 313 1100 
L 313 1709 
L 2253 4666 
z
" transform="scale(0.015625)"/>
       </defs>
       <use xlink:href="#DejaVuSans-31"/>
       <use xlink:href="#DejaVuSans-34" transform="translate(63.623047 0)"/>
      </g>
     </g>
    </g>
    <g id="xtick_3">
     <g id="line2d_5">
      <path d="M 182.269329 251.597812 
L 182.269329 29.837812 
" clip-path="url(#p5d5403a846)" style="fill: none; stroke-dasharray: 2.96,1.28; stroke-dashoffset: 0; stroke: #e2e8f0; stroke-opacity: 0.3; stroke-width: 0.8"/>
     </g>
     <g id="line2d_6">
      <g>
       <use xlink:href="#m7495d12d21" x="182.269329" y="251.597812" style="stroke: #000000; stroke-width: 0.8"/>
      </g>
     </g>
     <g id="text_3">
      <!-- 16 -->
      <g transform="translate(175.906829 266.19625) scale(0.1 -0.1)">
       <defs>
        <path id="DejaVuSans-36" d="M 2113 2584 
Q 1688 2584 1439 2293 
Q 1191 2003 1191 1497 
Q 1191 994 1439 701 
Q 1688 409 2113 409 
Q 2538 409 2786 701 
Q 3034 994 3034 1497 
Q 3034 2003 2786 2293 
Q 2538 2584 2113 2584 
z
M 3366 4563 
L 3366 3988 
Q 3128 4100 2886 4159 
Q 2644 4219 2406 4219 
Q 1781 4219 1451 3797 
Q 1122 3375 1075 2522 
Q 1259 2794 1537 2939 
Q 1816 3084 2150 3084 
Q 2853 3084 3261 2657 
Q 3669 2231 3669 1497 
Q 3669 778 3244 343 
Q 2819 -91 2113 -91 
Q 1303 -91 875 529 
Q 447 1150 447 2328 
Q 447 3434 972 4092 
Q 1497 4750 2381 4750 
Q 2619 4750 2861 4703 
Q 3103 4656 3366 4563 
z
" transform="scale(0.015625)"/>
       </defs>
       <use xlink:href="#DejaVuSans-31"/>
       <use xlink:href="#DejaVuSans-36" transform="translate(63.623047 0)"/>
      </g>
     </g>
    </g>
    <g id="xtick_4">
     <g id="line2d_7">
      <path d="M 237.608171 251.597812 
L 237.608171 29.837812 
" clip-path="url(#p5d5403a846)" style="fill: none; stroke-dasharray: 2.96,1.28; stroke-dashoffset: 0; stroke: #e2e8f0; stroke-opacity: 0.3; stroke-width: 0.8"/>
     </g>
     <g id="line2d_8">
      <g>
       <use xlink:href="#m7495d12d21" x="237.608171" y="251.597812" style="stroke: #000000; stroke-width: 0.8"/>
      </g>
     </g>
     <g id="text_4">
      <!-- 18 -->
      <g transform="translate(231.245671 266.19625) scale(0.1 -0.1)">
       <defs>
        <path id="DejaVuSans-38" d="M 2034 2216 
Q 1584 2216 1326 1975 
Q 1069 1734 1069 1313 
Q 1069 891 1326 650 
Q 1584 409 2034 409 
Q 2484 409 2743 651 
Q 3003 894 3003 1313 
Q 3003 1734 2745 1975 
Q 2488 2216 2034 2216 
z
M 1403 2484 
Q 997 2584 770 2862 
Q 544 3141 544 3541 
Q 544 4100 942 4425 
Q 1341 4750 2034 4750 
Q 2731 4750 3128 4425 
Q 3525 4100 3525 3541 
Q 3525 3141 3298 2862 
Q 3072 2584 2669 2484 
Q 3125 2378 3379 2068 
Q 3634 1759 3634 1313 
Q 3634 634 3220 271 
Q 2806 -91 2034 -91 
Q 1263 -91 848 271 
Q 434 634 434 1313 
Q 434 1759 690 2068 
Q 947 2378 1403 2484 
z
M 1172 3481 
Q 1172 3119 1398 2916 
Q 1625 2713 2034 2713 
Q 2441 2713 2670 2916 
Q 2900 3119 2900 3481 
Q 2900 3844 2670 4047 
Q 2441 4250 2034 4250 
Q 1625 4250 1398 4047 
Q 1172 3844 1172 3481 
z
" transform="scale(0.015625)"/>
       </defs>
       <use xlink:href="#DejaVuSans-31"/>
       <use xlink:href="#DejaVuSans-38" transform="translate(63.623047 0)"/>
      </g>
     </g>
    </g>
    <g id="xtick_5">
     <g id="line2d_9">
      <path d="M 292.947014 251.597812 
L 292.947014 29.837812 
" clip-path="url(#p5d5403a846)" style="fill: none; stroke-dasharray: 2.96,1.28; stroke-dashoffset: 0; stroke: #e2e8f0; stroke-opacity: 0.3; stroke-width: 0.8"/>
     </g>
     <g id="line2d_10">
      <g>
       <use xlink:href="#m7495d12d21" x="292.947014" y="251.597812" style="stroke: #000000; stroke-width: 0.8"/>
      </g>
     </g>
     <g id="text_5">
      <!-- 20 -->
      <g transform="translate(286.584514 266.19625) scale(0.1 -0.1)">
       <defs>
        <path id="DejaVuSans-30" d="M 2034 4250 
Q 1547 4250 1301 3770 
Q 1056 3291 1056 2328 
Q 1056 1369 1301 889 
Q 1547 409 2034 409 
Q 2525 409 2770 889 
Q 3016 1369 3016 2328 
Q 3016 3291 2770 3770 
Q 2525 4250 2034 4250 
z
M 2034 4750 
Q 2819 4750 3233 4129 
Q 3647 3509 3647 2328 
Q 3647 1150 3233 529 
Q 2819 -91 2034 -91 
Q 1250 -91 836 529 
Q 422 1150 422 2328 
Q 422 3509 836 4129 
Q 1250 4750 2034 4750 
z
" transform="scale(0.015625)"/>
       </defs>
       <use xlink:href="#DejaVuSans-32"/>
       <use xlink:href="#DejaVuSans-30" transform="translate(63.623047 0)"/>
      </g>
     </g>
    </g>
    <g id="xtick_6">
     <g id="line2d_11">
      <path d="M 348.285857 251.597812 
L 348.285857 29.837812 
" clip-path="url(#p5d5403a846)" style="fill: none; stroke-dasharray: 2.96,1.28; stroke-dashoffset: 0; stroke: #e2e8f0; stroke-opacity: 0.3; stroke-width: 0.8"/>
     </g>
     <g id="line2d_12">
      <g>
       <use xlink:href="#m7495d12d21" x="348.285857" y="251.597812" style="stroke: #000000; stroke-width: 0.8"/>
      </g>
     </g>
     <g id="text_6">
      <!-- 22 -->
      <g transform="translate(341.923357 266.19625) scale(0.1 -0.1)">
       <use xlink:href="#DejaVuSans-32"/>
       <use xlink:href="#DejaVuSans-32" transform="translate(63.623047 0)"/>
      </g>
     </g>
    </g>
    <g id="text_7">
     <!-- Height (cm) -->
     <g transform="translate(174.371875 281.394062) scale(0.12 -0.12)">
      <defs>
       <path id="DejaVuSans-48" d="M 628 4666 
L 1259 4666 
L 1259 2753 
L 3553 2753 
L 3553 4666 
L 4184 4666 
L 4184 0 
L 3553 0 
L 3553 2222 
L 1259 2222 
L 1259 0 
L 628 0 
L 628 4666 
z
" transform="scale(0.015625)"/>
       <path id="DejaVuSans-65" d="M 3597 1894 
L 3597 1613 
L 953 1613 
Q 991 1019 1311 708 
Q 1631 397 2203 397 
Q 2534 397 2845 478 
Q 3156 559 3463 722 
L 3463 178 
Q 3153 47 2828 -22 
Q 2503 -91 2169 -91 
Q 1331 -91 842 396 
Q 353 884 353 1716 
Q 353 2575 817 3079 
Q 1281 3584 2069 3584 
Q 2775 3584 3186 3129 
Q 3597 2675 3597 1894 
z
M 3022 2063 
Q 3016 2534 2758 2815 
Q 2500 3097 2075 3097 
Q 1594 3097 1305 2825 
Q 1016 2553 972 2059 
L 3022 2063 
z
" transform="scale(0.015625)"/>
       <path id="DejaVuSans-69" d="M 603 3500 
L 1178 3500 
L 1178 0 
L 603 0 
L 603 3500 
z
M 603 4863 
L 1178 4863 
L 1178 4134 
L 603 4134 
L 603 4863 
z
" transform="scale(0.015625)"/>
       <path id="DejaVuSans-67" d="M 2906 1791 
Q 2906 2416 2648 2759 
Q 2391 3103 1925 3103 
Q 1463 3103 1205 2759 
Q 947 2416 947 1791 
Q 947 1169 1205 825 
Q 1463 481 1925 481 
Q 2391 481 2648 825 
Q 2906 1169 2906 1791 
z
M 3481 434 
Q 3481 -459 3084 -895 
Q 2688 -1331 1869 -1331 
Q 1566 -1331 1297 -1286 
Q 1028 -1241 775 -1147 
L 775 -588 
Q 1028 -725 1275 -790 
Q 1522 -856 1778 -856 
Q 2344 -856 2625 -561 
Q 2906 -266 2906 331 
L 2906 616 
Q 2728 306 2450 153 
Q 2172 0 1784 0 
Q 1141 0 747 490 
Q 353 981 353 1791 
Q 353 2603 747 3093 
Q 1141 3584 1784 3584 
Q 2172 3584 2450 3431 
Q 2728 3278 2906 2969 
L 2906 3500 
L 3481 3500 
L 3481 434 
z
" transform="scale(0.015625)"/>
       <path id="DejaVuSans-68" d="M 3513 2113 
L 3513 0 
L 2938 0 
L 2938 2094 
Q 2938 2591 2744 2837 
Q 2550 3084 2163 3084 
Q 1697 3084 1428 2787 
Q 1159 2491 1159 1978 
L 1159 0 
L 581 0 
L 581 4863 
L 1159 4863 
L 1159 2956 
Q 1366 3272 1645 3428 
Q 1925 3584 2291 3584 
Q 2894 3584 3203 3211 
Q 3513 2838 3513 2113 
z
" transform="scale(0.015625)"/>
       <path id="DejaVuSans-74" d="M 1172 4494 
L 1172 3500 
L 2356 3500 
L 2356 3053 
L 1172 3053 
L 1172 1153 
Q 1172 725 1289 603 
Q 1406 481 1766 481 
L 2356 481 
L 2356 0 
L 1766 0 
Q 1100 0 847 248 
Q 594 497 594 1153 
L 594 3053 
L 172 3053 
L 172 3500 
L 594 3500 
L 594 4494 
L 1172 4494 
z
" transform="scale(0.015625)"/>
       <path id="DejaVuSans-20" transform="scale(0.015625)"/>
       <path id="DejaVuSans-28" d="M 1984 4856 
Q 1566 4138 1362 3434 
Q 1159 2731 1159 2009 
Q 1159 1288 1364 580 
Q 1569 -128 1984 -844 
L 1484 -844 
Q 1016 -109 783 600 
Q 550 1309 550 2009 
Q 550 2706 781 3412 
Q 1013 4119 1484 4856 
L 1984 4856 
z
" transform="scale(0.015625)"/>
       <path id="DejaVuSans-63" d="M 3122 3366 
L 3122 2828 
Q 2878 2963 2633 3030 
Q 2388 3097 2138 3097 
Q 1578 3097 1268 2742 
Q 959 2388 959 1747 
Q 959 1106 1268 751 
Q 1578 397 2138 397 
Q 2388 397 2633 464 
Q 2878 531 3122 666 
L 3122 134 
Q 2881 22 2623 -34 
Q 2366 -91 2075 -91 
Q 1284 -91 818 406 
Q 353 903 353 1747 
Q 353 2603 823 3093 
Q 1294 3584 2113 3584 
Q 2378 3584 2631 3529 
Q 2884 3475 3122 3366 
z
" transform="scale(0.015625)"/>
       <path id="DejaVuSans-6d" d="M 3328 2828 
Q 3544 3216 3844 3400 
Q 4144 3584 4550 3584 
Q 5097 3584 5394 3201 
Q 5691 2819 5691 2113 
L 5691 0 
L 5113 0 
L 5113 2094 
Q 5113 2597 4934 2840 
Q 4756 3084 4391 3084 
Q 3944 3084 3684 2787 
Q 3425 2491 3425 1978 
L 3425 0 
L 2847 0 
L 2847 2094 
Q 2847 2600 2669 2842 
Q 2491 3084 2119 3084 
Q 1678 3084 1418 2786 
Q 1159 2488 1159 1978 
L 1159 0 
L 581 0 
L 581 3500 
L 1159 3500 
L 1159 2956 
Q 1356 3278 1631 3431 
Q 1906 3584 2284 3584 
Q 2666 3584 2933 3390 
Q 3200 3197 3328 2828 
z
" transform="scale(0.015625)"/>
       <path id="DejaVuSans-29" d="M 513 4856 
L 1013 4856 
Q 1481 4119 1714 3412 
Q 1947 2706 1947 2009 
Q 1947 1309 1714 600 
Q 1481 -109 1013 -844 
L 513 -844 
Q 928 -128 1133 580 
Q 1338 1288 1338 2009 
Q 1338 2731 1133 3434 
Q 928 4138 513 4856 
z
" transform="scale(0.015625)"/>
      </defs>
      <use xlink:href="#DejaVuSans-48"/>
      <use xlink:href="#DejaVuSans-65" transform="translate(75.195312 0)"/>
      <use xlink:href="#DejaVuSans-69" transform="translate(136.71875 0)"/>
      <use xlink:href="#DejaVuSans-67" transform="translate(164.501953 0)"/>
      <use xlink:href="#DejaVuSans-68" transform="translate(227.978516 0)"/>
      <use xlink:href="#DejaVuSans-74" transform="translate(291.357422 0)"/>
      <use xlink:href="#DejaVuSans-20" transform="translate(330.566406 0)"/>
      <use xlink:href="#DejaVuSans-28" transform="translate(362.353516 0)"/>
      <use xlink:href="#DejaVuSans-63" transform="translate(401.367188 0)"/>
      <use xlink:href="#DejaVuSans-6d" transform="translate(456.347656 0)"/>
      <use xlink:href="#DejaVuSans-29" transform="translate(553.759766 0)"/>
     </g>
    </g>
   </g>
   <g id="matplotlib.axis_2">
    <g id="ytick_1">
     <g id="line2d_13">
      <path d="M 42.53875 225.880077 
L 377.33875 225.880077 
" clip-path="url(#p5d5403a846)" style="fill: none; stroke-dasharray: 2.96,1.28; stroke-dashoffset: 0; stroke: #e2e8f0; stroke-opacity: 0.3; stroke-width: 0.8"/>
     </g>
     <g id="line2d_14">
      <defs>
       <path id="me1d6ba4763" d="M 0 0 
L -3.5 0 
" style="stroke: #000000; stroke-width: 0.8"/>
      </defs>
      <g>
       <use xlink:href="#me1d6ba4763" x="42.53875" y="225.880077" style="stroke: #000000; stroke-width: 0.8"/>
      </g>
     </g>
     <g id="text_8">
      <!-- 25 -->
      <g transform="translate(22.81375 229.679295) scale(0.1 -0.1)">
       <defs>
        <path id="DejaVuSans-35" d="M 691 4666 
L 3169 4666 
L 3169 4134 
L 1269 4134 
L 1269 2991 
Q 1406 3038 1543 3061 
Q 1681 3084 1819 3084 
Q 2600 3084 3056 2656 
Q 3513 2228 3513 1497 
Q 3513 744 3044 326 
Q 2575 -91 1722 -91 
Q 1428 -91 1123 -41 
Q 819 9 494 109 
L 494 744 
Q 775 591 1075 516 
Q 1375 441 1709 441 
Q 2250 441 2565 725 
Q 2881 1009 2881 1497 
Q 2881 1984 2565 2268 
Q 2250 2553 1709 2553 
Q 1456 2553 1204 2497 
Q 953 2441 691 2322 
L 691 4666 
z
" transform="scale(0.015625)"/>
       </defs>
       <use xlink:href="#DejaVuSans-32"/>
       <use xlink:href="#DejaVuSans-35" transform="translate(63.623047 0)"/>
      </g>
     </g>
    </g>
    <g id="ytick_2">
     <g id="line2d_15">
      <path d="M 42.53875 183.615926 
L 377.33875 183.615926 
" clip-path="url(#p5d5403a846)" style="fill: none; stroke-dasharray: 2.96,1.28; stroke-dashoffset: 0; stroke: #e2e8f0; stroke-opacity: 0.3; stroke-width: 0.8"/>
     </g>
     <g id="line2d_16">
      <g>
       <use xlink:href="#me1d6ba4763" x="42.53875" y="183.615926" style="stroke: #000000; stroke-width: 0.8"/>
      </g>
     </g>
     <g id="text_9">
      <!-- 30 -->
      <g transform="translate(22.81375 187.415144) scale(0.1 -0.1)">
       <defs>
        <path id="DejaVuSans-33" d="M 2597 2516 
Q 3050 2419 3304 2112 
Q 3559 1806 3559 1356 
Q 3559 666 3084 287 
Q 2609 -91 1734 -91 
Q 1441 -91 1130 -33 
Q 819 25 488 141 
L 488 750 
Q 750 597 1062 519 
Q 1375 441 1716 441 
Q 2309 441 2620 675 
Q 2931 909 2931 1356 
Q 2931 1769 2642 2001 
Q 2353 2234 1838 2234 
L 1294 2234 
L 1294 2753 
L 1863 2753 
Q 2328 2753 2575 2939 
Q 2822 3125 2822 3475 
Q 2822 3834 2567 4026 
Q 2313 4219 1838 4219 
Q 1578 4219 1281 4162 
Q 984 4106 628 3988 
L 628 4550 
Q 988 4650 1302 4700 
Q 1616 4750 1894 4750 
Q 2613 4750 3031 4423 
Q 3450 4097 3450 3541 
Q 3450 3153 3228 2886 
Q 3006 2619 2597 2516 
z
" transform="scale(0.015625)"/>
       </defs>
       <use xlink:href="#DejaVuSans-33"/>
       <use xlink:href="#DejaVuSans-30" transform="translate(63.623047 0)"/>
      </g>
     </g>
    </g>
    <g id="ytick_3">
     <g id="line2d_17">
      <path d="M 42.53875 141.351775 
L 377.33875 141.351775 
" clip-path="url(#p5d5403a846)" style="fill: none; stroke-dasharray: 2.96,1.28; stroke-dashoffset: 0; stroke: #e2e8f0; stroke-opacity: 0.3; stroke-width: 0.8"/>
     </g>
     <g id="line2d_18">
      <g>
       <use xlink:href="#me1d6ba4763" x="42.53875" y="141.351775" style="stroke: #000000; stroke-width: 0.8"/>
      </g>
     </g>
     <g id="text_10">
      <!-- 35 -->
      <g transform="translate(22.81375 145.150994) scale(0.1 -0.1)">
       <use xlink:href="#DejaVuSans-33"/>
       <use xlink:href="#DejaVuSans-35" transform="translate(63.623047 0)"/>
      </g>
     </g>
    </g>
    <g id="ytick_4">
     <g id="line2d_19">
      <path d="M 42.53875 99.087624 
L 377.33875 99.087624 
" clip-path="url(#p5d5403a846)" style="fill: none; stroke-dasharray: 2.96,1.28; stroke-dashoffset: 0; stroke: #e2e8f0; stroke-opacity: 0.3; stroke-width: 0.8"/>
     </g>
     <g id="line2d_20">
      <g>
       <use xlink:href="#me1d6ba4763" x="42.53875" y="99.087624" style="stroke: #000000; stroke-width: 0.8"/>
      </g>
     </g>
     <g id="text_11">
      <!-- 40 -->
      <g transform="translate(22.81375 102.886843) scale(0.1 -0.1)">
       <use xlink:href="#DejaVuSans-34"/>
       <use xlink:href="#DejaVuSans-30" transform="translate(63.623047 0)"/>
      </g>
     </g>
    </g>
    <g id="ytick_5">
     <g id="line2d_21">
      <path d="M 42.53875 56.823473 
L 377.33875 56.823473 
" clip-path="url(#p5d5403a846)" style="fill: none; stroke-dasharray: 2.96,1.28; stroke-dashoffset: 0; stroke: #e2e8f0; stroke-opacity: 0.3; stroke-width: 0.8"/>
     </g>
     <g id="line2d_22">
      <g>
       <use xlink:href="#me1d6ba4763" x="42.53875" y="56.823473" style="stroke: #000000; stroke-width: 0.8"/>
      </g>
     </g>
     <g id="text_12">
      <!-- 45 -->
      <g transform="translate(22.81375 60.622692) scale(0.1 -0.1)">
       <use xlink:href="#DejaVuSans-34"/>
       <use xlink:href="#DejaVuSans-35" transform="translate(63.623047 0)"/>
      </g>
     </g>
    </g>
    <g id="text_13">
     <!-- Wingspan (cm) -->
     <g transform="translate(16.318125 185.94) rotate(-90) scale(0.12 -0.12)">
      <defs>
       <path id="DejaVuSans-57" d="M 213 4666 
L 850 4666 
L 1831 722 
L 2809 4666 
L 3519 4666 
L 4500 722 
L 5478 4666 
L 6119 4666 
L 4947 0 
L 4153 0 
L 3169 4050 
L 2175 0 
L 1381 0 
L 213 4666 
z
" transform="scale(0.015625)"/>
       <path id="DejaVuSans-6e" d="M 3513 2113 
L 3513 0 
L 2938 0 
L 2938 2094 
Q 2938 2591 2744 2837 
Q 2550 3084 2163 3084 
Q 1697 3084 1428 2787 
Q 1159 2491 1159 1978 
L 1159 0 
L 581 0 
L 581 3500 
L 1159 3500 
L 1159 2956 
Q 1366 3272 1645 3428 
Q 1925 3584 2291 3584 
Q 2894 3584 3203 3211 
Q 3513 2838 3513 2113 
z
" transform="scale(0.015625)"/>
       <path id="DejaVuSans-73" d="M 2834 3397 
L 2834 2853 
Q 2591 2978 2328 3040 
Q 2066 3103 1784 3103 
Q 1356 3103 1142 2972 
Q 928 2841 928 2578 
Q 928 2378 1081 2264 
Q 1234 2150 1697 2047 
L 1894 2003 
Q 2506 1872 2764 1633 
Q 3022 1394 3022 966 
Q 3022 478 2636 193 
Q 2250 -91 1575 -91 
Q 1294 -91 989 -36 
Q 684 19 347 128 
L 347 722 
Q 666 556 975 473 
Q 1284 391 1588 391 
Q 1994 391 2212 530 
Q 2431 669 2431 922 
Q 2431 1156 2273 1281 
Q 2116 1406 1581 1522 
L 1381 1569 
Q 847 1681 609 1914 
Q 372 2147 372 2553 
Q 372 3047 722 3315 
Q 1072 3584 1716 3584 
Q 2034 3584 2315 3537 
Q 2597 3491 2834 3397 
z
" transform="scale(0.015625)"/>
       <path id="DejaVuSans-70" d="M 1159 525 
L 1159 -1331 
L 581 -1331 
L 581 3500 
L 1159 3500 
L 1159 2969 
Q 1341 3281 1617 3432 
Q 1894 3584 2278 3584 
Q 2916 3584 3314 3078 
Q 3713 2572 3713 1747 
Q 3713 922 3314 415 
Q 2916 -91 2278 -91 
Q 1894 -91 1617 61 
Q 1341 213 1159 525 
z
M 3116 1747 
Q 3116 2381 2855 2742 
Q 2594 3103 2138 3103 
Q 1681 3103 1420 2742 
Q 1159 2381 1159 1747 
Q 1159 1113 1420 752 
Q 1681 391 2138 391 
Q 2594 391 2855 752 
Q 3116 1113 3116 1747 
z
" transform="scale(0.015625)"/>
       <path id="DejaVuSans-61" d="M 2194 1759 
Q 1497 1759 1228 1600 
Q 959 1441 959 1056 
Q 959 750 1161 570 
Q 1363 391 1709 391 
Q 2188 391 2477 730 
Q 2766 1069 2766 1631 
L 2766 1759 
L 2194 1759 
z
M 3341 1997 
L 3341 0 
L 2766 0 
L 2766 531 
Q 2569 213 2275 61 
Q 1981 -91 1556 -91 
Q 1019 -91 701 211 
Q 384 513 384 1019 
Q 384 1609 779 1909 
Q 1175 2209 1959 2209 
L 2766 2209 
L 2766 2266 
Q 2766 2663 2505 2880 
Q 2244 3097 1772 3097 
Q 1472 3097 1187 3025 
Q 903 2953 641 2809 
L 641 3341 
Q 956 3463 1253 3523 
Q 1550 3584 1831 3584 
Q 2591 3584 2966 3190 
Q 3341 2797 3341 1997 
z
" transform="scale(0.015625)"/>
      </defs>
      <use xlink:href="#DejaVuSans-57"/>
      <use xlink:href="#DejaVuSans-69" transform="translate(96.626953 0)"/>
      <use xlink:href="#DejaVuSans-6e" transform="translate(124.410156 0)"/>
      <use xlink:href="#DejaVuSans-67" transform="translate(187.789062 0)"/>
      <use xlink:href="#DejaVuSans-73" transform="translate(251.265625 0)"/>
      <use xlink:href="#DejaVuSans-70" transform="translate(303.365234 0)"/>
      <use xlink:href="#DejaVuSans-61" transform="translate(366.841797 0)"/>
      <use xlink:href="#DejaVuSans-6e" transform="translate(428.121094 0)"/>
      <use xlink:href="#DejaVuSans-20" transform="translate(491.5 0)"/>
      <use xlink:href="#DejaVuSans-28" transform="translate(523.287109 0)"/>
      <use xlink:href="#DejaVuSans-63" transform="translate(562.300781 0)"/>
      <use xlink:href="#DejaVuSans-6d" transform="translate(617.28125 0)"/>
      <use xlink:href="#DejaVuSans-29" transform="translate(714.693359 0)"/>
     </g>
    </g>
   </g>
   <g id="patch_3">
    <path d="M 42.53875 251.597812 
L 42.53875 29.837812 
" style="fill: none; stroke: #94a3b8; stroke-width: 0.8; stroke-linejoin: miter; stroke-linecap: square"/>
   </g>
   <g id="patch_4">
    <path d="M 377.33875 251.597812 
L 377.33875 29.837812 
" style="fill: none; stroke: #94a3b8; stroke-width: 0.8; stroke-linejoin: miter; stroke-linecap: square"/>
   </g>
   <g id="patch_5">
    <path d="M 42.53875 251.597812 
L 377.33875 251.597812 
" style="fill: none; stroke: #94a3b8; stroke-width: 0.8; stroke-linejoin: miter; stroke-linecap: square"/>
   </g>
   <g id="patch_6">
    <path d="M 42.53875 29.837812 
L 377.33875 29.837812 
" style="fill: none; stroke: #94a3b8; stroke-width: 0.8; stroke-linejoin: miter; stroke-linecap: square"/>
   </g>
   <g id="line2d_23">
    <path d="M 57.756932 241.517812 
L 60.831312 239.545485 
L 63.905692 237.573158 
L 66.980072 235.600831 
L 70.054452 233.628504 
L 73.128833 231.656177 
L 76.203213 229.68385 
L 79.277593 227.711523 
L 82.351973 225.739196 
L 85.426353 223.766869 
L 88.500733 221.794542 
L 91.575114 219.822215 
L 94.649494 217.849888 
L 97.723874 215.877561 
L 100.798254 213.905234 
L 103.872634 211.932907 
L 106.947014 209.96058 
L 110.021395 207.988253 
L 113.095775 206.015926 
L 116.170155 204.043599 
L 119.244535 202.071272 
L 122.318915 200.098945 
L 125.393295 198.126618 
L 128.467676 196.15429 
L 131.542056 194.181963 
L 134.616436 192.209636 
L 137.690816 190.237309 
L 140.765196 188.264982 
L 143.839576 186.292655 
L 146.913957 184.320328 
L 149.988337 182.348001 
L 153.062717 180.375674 
L 156.137097 178.403347 
L 159.211477 176.43102 
L 162.285857 174.458693 
L 165.360238 172.486366 
L 168.434618 170.514039 
L 171.508998 168.541712 
L 174.583378 166.569385 
L 177.657758 164.597058 
L 180.732138 162.624731 
L 183.806519 160.652404 
L 186.880899 158.680077 
L 189.955279 156.70775 
L 193.029659 154.735423 
L 196.104039 152.763096 
L 199.178419 150.790768 
L 202.2528 148.818441 
L 205.32718 146.846114 
L 208.40156 144.873787 
L 211.47594 142.90146 
L 214.55032 140.929133 
L 217.6247 138.956806 
L 220.699081 136.984479 
L 223.773461 135.012152 
L 226.847841 133.039825 
L 229.922221 131.067498 
L 232.996601 129.095171 
L 236.070981 127.122844 
L 239.145362 125.150517 
L 242.219742 123.17819 
L 245.294122 121.205863 
L 248.368502 119.233536 
L 251.442882 117.261209 
L 254.517262 115.288882 
L 257.591643 113.316555 
L 260.666023 111.344228 
L 263.740403 109.371901 
L 266.814783 107.399574 
L 269.889163 105.427246 
L 272.963543 103.454919 
L 276.037924 101.482592 
L 279.112304 99.510265 
L 282.186684 97.537938 
L 285.261064 95.565611 
L 288.335444 93.593284 
L 291.409824 91.620957 
L 294.484205 89.64863 
L 297.558585 87.676303 
L 300.632965 85.703976 
L 303.707345 83.731649 
L 306.781725 81.759322 
L 309.856105 79.786995 
L 312.930486 77.814668 
L 316.004866 75.842341 
L 319.079246 73.870014 
L 322.153626 71.897687 
L 325.228006 69.92536 
L 328.302386 67.953033 
L 331.376767 65.980706 
L 334.451147 64.008379 
L 337.525527 62.036051 
L 340.599907 60.063724 
L 343.674287 58.091397 
L 346.748667 56.11907 
L 349.823048 54.146743 
L 352.897428 52.174416 
L 355.971808 50.202089 
L 359.046188 48.229762 
L 362.120568 46.257435 
" clip-path="url(#p5d5403a846)" style="fill: none; stroke: #c41e3a; stroke-width: 2; stroke-linecap: square"/>
   </g>
   <g id="text_14">
    <g id="patch_7">
     <path d="M 59.27875 65.80175 
L 109.57875 65.80175 
Q 113.57875 65.80175 113.57875 61.80175 
L 113.57875 40.925812 
Q 113.57875 36.925812 109.57875 36.925812 
L 59.27875 36.925812 
Q 55.27875 36.925812 55.27875 40.925812 
L 55.27875 61.80175 
Q 55.27875 65.80175 59.27875 65.80175 
z
" style="fill: #fff9c4; opacity: 0.9; stroke: #f59e0b; stroke-linejoin: miter"/>
    </g>
    <!-- $r = 0.980$ -->
    <g transform="translate(59.27875 48.52425) scale(0.1 -0.1)">
     <defs>
      <path id="DejaVuSans-Oblique-72" d="M 2853 2969 
Q 2766 3016 2653 3041 
Q 2541 3066 2413 3066 
Q 1953 3066 1609 2717 
Q 1266 2369 1153 1784 
L 800 0 
L 225 0 
L 909 3500 
L 1484 3500 
L 1375 2956 
Q 1603 3259 1920 3421 
Q 2238 3584 2597 3584 
Q 2691 3584 2781 3573 
Q 2872 3563 2963 3538 
L 2853 2969 
z
" transform="scale(0.015625)"/>
      <path id="DejaVuSans-3d" d="M 678 2906 
L 4684 2906 
L 4684 2381 
L 678 2381 
L 678 2906 
z
M 678 1631 
L 4684 1631 
L 4684 1100 
L 678 1100 
L 678 1631 
z
" transform="scale(0.015625)"/>
      <path id="DejaVuSans-2e" d="M 684 794 
L 1344 794 
L 1344 0 
L 684 0 
L 684 794 
z
" transform="scale(0.015625)"/>
      <path id="DejaVuSans-39" d="M 703 97 
L 703 672 
Q 941 559 1184 500 
Q 1428 441 1663 441 
Q 2288 441 2617 861 
Q 2947 1281 2994 2138 
Q 2813 1869 2534 1725 
Q 2256 1581 1919 1581 
Q 1219 1581 811 2004 
Q 403 2428 403 3163 
Q 403 3881 828 4315 
Q 1253 4750 1959 4750 
Q 2769 4750 3195 4129 
Q 3622 3509 3622 2328 
Q 3622 1225 3098 567 
Q 2575 -91 1691 -91 
Q 1453 -91 1209 -44 
Q 966 3 703 97 
z
M 1959 2075 
Q 2384 2075 2632 2365 
Q 2881 2656 2881 3163 
Q 2881 3666 2632 3958 
Q 2384 4250 1959 4250 
Q 1534 4250 1286 3958 
Q 1038 3666 1038 3163 
Q 1038 2656 1286 2365 
Q 1534 2075 1959 2075 
z
" transform="scale(0.015625)"/>
     </defs>
     <use xlink:href="#DejaVuSans-Oblique-72" transform="translate(0 0.78125)"/>
     <use xlink:href="#DejaVuSans-3d" transform="translate(60.595703 0.78125)"/>
     <use xlink:href="#DejaVuSans-30" transform="translate(163.867188 0.78125)"/>
     <use xlink:href="#DejaVuSans-2e" transform="translate(227.490234 0.78125)"/>
     <use xlink:href="#DejaVuSans-39" transform="translate(259.277344 0.78125)"/>
     <use xlink:href="#DejaVuSans-38" transform="translate(322.900391 0.78125)"/>
     <use xlink:href="#DejaVuSans-30" transform="translate(386.523438 0.78125)"/>
    </g>
    <!-- $r^2 = 0.960$ -->
    <g transform="translate(59.27875 59.722062) scale(0.1 -0.1)">
     <use xlink:href="#DejaVuSans-Oblique-72" transform="translate(0 0.765625)"/>
     <use xlink:href="#DejaVuSans-32" transform="translate(45.763177 39.046875) scale(0.7)"/>
     <use xlink:href="#DejaVuSans-3d" transform="translate(112.516107 0.765625)"/>
     <use xlink:href="#DejaVuSans-30" transform="translate(215.787591 0.765625)"/>
     <use xlink:href="#DejaVuSans-2e" transform="translate(279.410638 0.765625)"/>
     <use xlink:href="#DejaVuSans-39" transform="translate(311.197747 0.765625)"/>
     <use xlink:href="#DejaVuSans-36" transform="translate(374.820794 0.765625)"/>
     <use xlink:href="#DejaVuSans-30" transform="translate(438.443841 0.765625)"/>
    </g>
   </g>
   <g id="text_15">
    <!-- Bird Height vs. Wingspan -->
    <g style="fill: #1a1a2e" transform="translate(109.699844 17.837812) scale(0.14 -0.14)">
     <defs>
      <path id="DejaVuSans-Bold-42" d="M 2456 2859 
Q 2741 2859 2887 2984 
Q 3034 3109 3034 3353 
Q 3034 3594 2887 3720 
Q 2741 3847 2456 3847 
L 1791 3847 
L 1791 2859 
L 2456 2859 
z
M 2497 819 
Q 2859 819 3042 972 
Q 3225 1125 3225 1434 
Q 3225 1738 3044 1889 
Q 2863 2041 2497 2041 
L 1791 2041 
L 1791 819 
L 2497 819 
z
M 3616 2497 
Q 4003 2384 4215 2081 
Q 4428 1778 4428 1338 
Q 4428 663 3972 331 
Q 3516 0 2584 0 
L 588 0 
L 588 4666 
L 2394 4666 
Q 3366 4666 3802 4372 
Q 4238 4078 4238 3431 
Q 4238 3091 4078 2852 
Q 3919 2613 3616 2497 
z
" transform="scale(0.015625)"/>
      <path id="DejaVuSans-Bold-69" d="M 538 3500 
L 1656 3500 
L 1656 0 
L 538 0 
L 538 3500 
z
M 538 4863 
L 1656 4863 
L 1656 3950 
L 538 3950 
L 538 4863 
z
" transform="scale(0.015625)"/>
      <path id="DejaVuSans-Bold-72" d="M 3138 2547 
Q 2991 2616 2845 2648 
Q 2700 2681 2553 2681 
Q 2122 2681 1889 2404 
Q 1656 2128 1656 1613 
L 1656 0 
L 538 0 
L 538 3500 
L 1656 3500 
L 1656 2925 
Q 1872 3269 2151 3426 
Q 2431 3584 2822 3584 
Q 2878 3584 2943 3579 
Q 3009 3575 3134 3559 
L 3138 2547 
z
" transform="scale(0.015625)"/>
      <path id="DejaVuSans-Bold-64" d="M 2919 2988 
L 2919 4863 
L 4044 4863 
L 4044 0 
L 2919 0 
L 2919 506 
Q 2688 197 2409 53 
Q 2131 -91 1766 -91 
Q 1119 -91 703 423 
Q 288 938 288 1747 
Q 288 2556 703 3070 
Q 1119 3584 1766 3584 
Q 2128 3584 2408 3439 
Q 2688 3294 2919 2988 
z
M 2181 722 
Q 2541 722 2730 984 
Q 2919 1247 2919 1747 
Q 2919 2247 2730 2509 
Q 2541 2772 2181 2772 
Q 1825 2772 1636 2509 
Q 1447 2247 1447 1747 
Q 1447 1247 1636 984 
Q 1825 722 2181 722 
z
" transform="scale(0.015625)"/>
      <path id="DejaVuSans-Bold-20" transform="scale(0.015625)"/>
      <path id="DejaVuSans-Bold-48" d="M 588 4666 
L 1791 4666 
L 1791 2888 
L 3566 2888 
L 3566 4666 
L 4769 4666 
L 4769 0 
L 3566 0 
L 3566 1978 
L 1791 1978 
L 1791 0 
L 588 0 
L 588 4666 
z
" transform="scale(0.015625)"/>
      <path id="DejaVuSans-Bold-65" d="M 4031 1759 
L 4031 1441 
L 1416 1441 
Q 1456 1047 1700 850 
Q 1944 653 2381 653 
Q 2734 653 3104 758 
Q 3475 863 3866 1075 
L 3866 213 
Q 3469 63 3072 -14 
Q 2675 -91 2278 -91 
Q 1328 -91 801 392 
Q 275 875 275 1747 
Q 275 2603 792 3093 
Q 1309 3584 2216 3584 
Q 3041 3584 3536 3087 
Q 4031 2591 4031 1759 
z
M 2881 2131 
Q 2881 2450 2695 2645 
Q 2509 2841 2209 2841 
Q 1884 2841 1681 2658 
Q 1478 2475 1428 2131 
L 2881 2131 
z
" transform="scale(0.015625)"/>
      <path id="DejaVuSans-Bold-67" d="M 2919 594 
Q 2688 288 2409 144 
Q 2131 0 1766 0 
Q 1125 0 706 504 
Q 288 1009 288 1791 
Q 288 2575 706 3076 
Q 1125 3578 1766 3578 
Q 2131 3578 2409 3434 
Q 2688 3291 2919 2981 
L 2919 3500 
L 4044 3500 
L 4044 353 
Q 4044 -491 3511 -936 
Q 2978 -1381 1966 -1381 
Q 1638 -1381 1331 -1331 
Q 1025 -1281 716 -1178 
L 716 -306 
Q 1009 -475 1290 -558 
Q 1572 -641 1856 -641 
Q 2406 -641 2662 -400 
Q 2919 -159 2919 353 
L 2919 594 
z
M 2181 2772 
Q 1834 2772 1640 2515 
Q 1447 2259 1447 1791 
Q 1447 1309 1634 1061 
Q 1822 813 2181 813 
Q 2531 813 2725 1069 
Q 2919 1325 2919 1791 
Q 2919 2259 2725 2515 
Q 2531 2772 2181 2772 
z
" transform="scale(0.015625)"/>
      <path id="DejaVuSans-Bold-68" d="M 4056 2131 
L 4056 0 
L 2931 0 
L 2931 347 
L 2931 1625 
Q 2931 2084 2911 2256 
Q 2891 2428 2841 2509 
Q 2775 2619 2662 2680 
Q 2550 2741 2406 2741 
Q 2056 2741 1856 2470 
Q 1656 2200 1656 1722 
L 1656 0 
L 538 0 
L 538 4863 
L 1656 4863 
L 1656 2988 
Q 1909 3294 2193 3439 
Q 2478 3584 2822 3584 
Q 3428 3584 3742 3212 
Q 4056 2841 4056 2131 
z
" transform="scale(0.015625)"/>
      <path id="DejaVuSans-Bold-74" d="M 1759 4494 
L 1759 3500 
L 2913 3500 
L 2913 2700 
L 1759 2700 
L 1759 1216 
Q 1759 972 1856 886 
Q 1953 800 2241 800 
L 2816 800 
L 2816 0 
L 1856 0 
Q 1194 0 917 276 
Q 641 553 641 1216 
L 641 2700 
L 84 2700 
L 84 3500 
L 641 3500 
L 641 4494 
L 1759 4494 
z
" transform="scale(0.015625)"/>
      <path id="DejaVuSans-Bold-76" d="M 97 3500 
L 1216 3500 
L 2088 1081 
L 2956 3500 
L 4078 3500 
L 2700 0 
L 1472 0 
L 97 3500 
z
" transform="scale(0.015625)"/>
      <path id="DejaVuSans-Bold-73" d="M 3272 3391 
L 3272 2541 
Q 2913 2691 2578 2766 
Q 2244 2841 1947 2841 
Q 1628 2841 1473 2761 
Q 1319 2681 1319 2516 
Q 1319 2381 1436 2309 
Q 1553 2238 1856 2203 
L 2053 2175 
Q 2913 2066 3209 1816 
Q 3506 1566 3506 1031 
Q 3506 472 3093 190 
Q 2681 -91 1863 -91 
Q 1516 -91 1145 -36 
Q 775 19 384 128 
L 384 978 
Q 719 816 1070 734 
Q 1422 653 1784 653 
Q 2113 653 2278 743 
Q 2444 834 2444 1013 
Q 2444 1163 2330 1236 
Q 2216 1309 1875 1350 
L 1678 1375 
Q 931 1469 631 1722 
Q 331 1975 331 2491 
Q 331 3047 712 3315 
Q 1094 3584 1881 3584 
Q 2191 3584 2531 3537 
Q 2872 3491 3272 3391 
z
" transform="scale(0.015625)"/>
      <path id="DejaVuSans-Bold-2e" d="M 653 1209 
L 1778 1209 
L 1778 0 
L 653 0 
L 653 1209 
z
" transform="scale(0.015625)"/>
      <path id="DejaVuSans-Bold-57" d="M 191 4666 
L 1344 4666 
L 2150 1275 
L 2950 4666 
L 4109 4666 
L 4909 1275 
L 5716 4666 
L 6859 4666 
L 5759 0 
L 4372 0 
L 3525 3547 
L 2688 0 
L 1300 0 
L 191 4666 
z
" transform="scale(0.015625)"/>
      <path id="DejaVuSans-Bold-6e" d="M 4056 2131 
L 4056 0 
L 2931 0 
L 2931 347 
L 2931 1631 
Q 2931 2084 2911 2256 
Q 2891 2428 2841 2509 
Q 2775 2619 2662 2680 
Q 2550 2741 2406 2741 
Q 2056 2741 1856 2470 
Q 1656 2200 1656 1722 
L 1656 0 
L 538 0 
L 538 3500 
L 1656 3500 
L 1656 2988 
Q 1909 3294 2193 3439 
Q 2478 3584 2822 3584 
Q 3428 3584 3742 3212 
Q 4056 2841 4056 2131 
z
" transform="scale(0.015625)"/>
      <path id="DejaVuSans-Bold-70" d="M 1656 506 
L 1656 -1331 
L 538 -1331 
L 538 3500 
L 1656 3500 
L 1656 2988 
Q 1888 3294 2169 3439 
Q 2450 3584 2816 3584 
Q 3463 3584 3878 3070 
Q 4294 2556 4294 1747 
Q 4294 938 3878 423 
Q 3463 -91 2816 -91 
Q 2450 -91 2169 54 
Q 1888 200 1656 506 
z
M 2400 2772 
Q 2041 2772 1848 2508 
Q 1656 2244 1656 1747 
Q 1656 1250 1848 986 
Q 2041 722 2400 722 
Q 2759 722 2948 984 
Q 3138 1247 3138 1747 
Q 3138 2247 2948 2509 
Q 2759 2772 2400 2772 
z
" transform="scale(0.015625)"/>
      <path id="DejaVuSans-Bold-61" d="M 2106 1575 
Q 1756 1575 1579 1456 
Q 1403 1338 1403 1106 
Q 1403 894 1545 773 
Q 1688 653 1941 653 
Q 2256 653 2472 879 
Q 2688 1106 2688 1447 
L 2688 1575 
L 2106 1575 
z
M 3816 1997 
L 3816 0 
L 2688 0 
L 2688 519 
Q 2463 200 2181 54 
Q 1900 -91 1497 -91 
Q 953 -91 614 226 
Q 275 544 275 1050 
Q 275 1666 698 1953 
Q 1122 2241 2028 2241 
L 2688 2241 
L 2688 2328 
Q 2688 2594 2478 2717 
Q 2269 2841 1825 2841 
Q 1466 2841 1156 2769 
Q 847 2697 581 2553 
L 581 3406 
Q 941 3494 1303 3539 
Q 1666 3584 2028 3584 
Q 2975 3584 3395 3211 
Q 3816 2838 3816 1997 
z
" transform="scale(0.015625)"/>
     </defs>
     <use xlink:href="#DejaVuSans-Bold-42"/>
     <use xlink:href="#DejaVuSans-Bold-69" transform="translate(76.220703 0)"/>
     <use xlink:href="#DejaVuSans-Bold-72" transform="translate(110.498047 0)"/>
     <use xlink:href="#DejaVuSans-Bold-64" transform="translate(159.814453 0)"/>
     <use xlink:href="#DejaVuSans-Bold-20" transform="translate(231.396484 0)"/>
     <use xlink:href="#DejaVuSans-Bold-48" transform="translate(266.210938 0)"/>
     <use xlink:href="#DejaVuSans-Bold-65" transform="translate(349.902344 0)"/>
     <use xlink:href="#DejaVuSans-Bold-69" transform="translate(417.724609 0)"/>
     <use xlink:href="#DejaVuSans-Bold-67" transform="translate(452.001953 0)"/>
     <use xlink:href="#DejaVuSans-Bold-68" transform="translate(523.583984 0)"/>
     <use xlink:href="#DejaVuSans-Bold-74" transform="translate(594.775391 0)"/>
     <use xlink:href="#DejaVuSans-Bold-20" transform="translate(642.578125 0)"/>
     <use xlink:href="#DejaVuSans-Bold-76" transform="translate(677.392578 0)"/>
     <use xlink:href="#DejaVuSans-Bold-73" transform="translate(742.578125 0)"/>
     <use xlink:href="#DejaVuSans-Bold-2e" transform="translate(802.099609 0)"/>
     <use xlink:href="#DejaVuSans-Bold-20" transform="translate(840.087891 0)"/>
     <use xlink:href="#DejaVuSans-Bold-57" transform="translate(874.902344 0)"/>
     <use xlink:href="#DejaVuSans-Bold-69" transform="translate(985.205078 0)"/>
     <use xlink:href="#DejaVuSans-Bold-6e" transform="translate(1019.482422 0)"/>
     <use xlink:href="#DejaVuSans-Bold-67" transform="translate(1090.673828 0)"/>
     <use xlink:href="#DejaVuSans-Bold-73" transform="translate(1162.255859 0)"/>
     <use xlink:href="#DejaVuSans-Bold-70" transform="translate(1221.777344 0)"/>
     <use xlink:href="#DejaVuSans-Bold-61" transform="translate(1293.359375 0)"/>
     <use xlink:href="#DejaVuSans-Bold-6e" transform="translate(1360.839844 0)"/>
    </g>
   </g>
   <g id="PathCollection_1">
    <defs>
     <path id="m2d96ee4f9a" d="M 0 3.535534 
C 0.937635 3.535534 1.836992 3.163008 2.5 2.5 
C 3.163008 1.836992 3.535534 0.937635 3.535534 0 
C 3.535534 -0.937635 3.163008 -1.836992 2.5 -2.5 
C 1.836992 -3.163008 0.937635 -3.535534 0 -3.535534 
C -0.937635 -3.535534 -1.836992 -3.163008 -2.5 -2.5 
C -3.163008 -1.836992 -3.535534 -0.937635 -3.535534 0 
C -3.535534 0.937635 -3.163008 1.836992 -2.5 2.5 
C -1.836992 3.163008 -0.937635 3.535534 0 3.535534 
z
" style="stroke: #ffffff; stroke-opacity: 0.7; stroke-width: 0.5"/>
    </defs>
    <g clip-path="url(#p5d5403a846)">
     <use xlink:href="#m2d96ee4f9a" x="71.591643" y="234.332907" style="fill: #1b365d; fill-opacity: 0.7; stroke: #ffffff; stroke-opacity: 0.7; stroke-width: 0.5"/>
     <use xlink:href="#m2d96ee4f9a" x="99.261064" y="208.974416" style="fill: #1b365d; fill-opacity: 0.7; stroke: #ffffff; stroke-opacity: 0.7; stroke-width: 0.5"/>
     <use xlink:href="#m2d96ee4f9a" x="126.930486" y="200.521586" style="fill: #1b365d; fill-opacity: 0.7; stroke: #ffffff; stroke-opacity: 0.7; stroke-width: 0.5"/>
     <use xlink:href="#m2d96ee4f9a" x="140.765196" y="183.615926" style="fill: #1b365d; fill-opacity: 0.7; stroke: #ffffff; stroke-opacity: 0.7; stroke-width: 0.5"/>
     <use xlink:href="#m2d96ee4f9a" x="154.599907" y="175.163096" style="fill: #1b365d; fill-opacity: 0.7; stroke: #ffffff; stroke-opacity: 0.7; stroke-width: 0.5"/>
     <use xlink:href="#m2d96ee4f9a" x="168.434618" y="166.710265" style="fill: #1b365d; fill-opacity: 0.7; stroke: #ffffff; stroke-opacity: 0.7; stroke-width: 0.5"/>
     <use xlink:href="#m2d96ee4f9a" x="182.269329" y="158.257435" style="fill: #1b365d; fill-opacity: 0.7; stroke: #ffffff; stroke-opacity: 0.7; stroke-width: 0.5"/>
     <use xlink:href="#m2d96ee4f9a" x="182.269329" y="149.804605" style="fill: #1b365d; fill-opacity: 0.7; stroke: #ffffff; stroke-opacity: 0.7; stroke-width: 0.5"/>
     <use xlink:href="#m2d96ee4f9a" x="196.104039" y="141.351775" style="fill: #1b365d; fill-opacity: 0.7; stroke: #ffffff; stroke-opacity: 0.7; stroke-width: 0.5"/>
     <use xlink:href="#m2d96ee4f9a" x="209.93875" y="132.898945" style="fill: #1b365d; fill-opacity: 0.7; stroke: #ffffff; stroke-opacity: 0.7; stroke-width: 0.5"/>
     <use xlink:href="#m2d96ee4f9a" x="223.773461" y="124.446114" style="fill: #1b365d; fill-opacity: 0.7; stroke: #ffffff; stroke-opacity: 0.7; stroke-width: 0.5"/>
     <use xlink:href="#m2d96ee4f9a" x="237.608171" y="115.993284" style="fill: #1b365d; fill-opacity: 0.7; stroke: #ffffff; stroke-opacity: 0.7; stroke-width: 0.5"/>
     <use xlink:href="#m2d96ee4f9a" x="237.608171" y="124.446114" style="fill: #1b365d; fill-opacity: 0.7; stroke: #ffffff; stroke-opacity: 0.7; stroke-width: 0.5"/>
     <use xlink:href="#m2d96ee4f9a" x="251.442882" y="107.540454" style="fill: #1b365d; fill-opacity: 0.7; stroke: #ffffff; stroke-opacity: 0.7; stroke-width: 0.5"/>
     <use xlink:href="#m2d96ee4f9a" x="265.277593" y="99.087624" style="fill: #1b365d; fill-opacity: 0.7; stroke: #ffffff; stroke-opacity: 0.7; stroke-width: 0.5"/>
     <use xlink:href="#m2d96ee4f9a" x="279.112304" y="90.634794" style="fill: #1b365d; fill-opacity: 0.7; stroke: #ffffff; stroke-opacity: 0.7; stroke-width: 0.5"/>
     <use xlink:href="#m2d96ee4f9a" x="292.947014" y="82.181963" style="fill: #1b365d; fill-opacity: 0.7; stroke: #ffffff; stroke-opacity: 0.7; stroke-width: 0.5"/>
     <use xlink:href="#m2d96ee4f9a" x="292.947014" y="73.729133" style="fill: #1b365d; fill-opacity: 0.7; stroke: #ffffff; stroke-opacity: 0.7; stroke-width: 0.5"/>
     <use xlink:href="#m2d96ee4f9a" x="306.781725" y="65.276303" style="fill: #1b365d; fill-opacity: 0.7; stroke: #ffffff; stroke-opacity: 0.7; stroke-width: 0.5"/>
     <use xlink:href="#m2d96ee4f9a" x="320.616436" y="56.823473" style="fill: #1b365d; fill-opacity: 0.7; stroke: #ffffff; stroke-opacity: 0.7; stroke-width: 0.5"/>
     <use xlink:href="#m2d96ee4f9a" x="334.451147" y="48.370643" style="fill: #1b365d; fill-opacity: 0.7; stroke: #ffffff; stroke-opacity: 0.7; stroke-width: 0.5"/>
     <use xlink:href="#m2d96ee4f9a" x="348.285857" y="39.917812" style="fill: #1b365d; fill-opacity: 0.7; stroke: #ffffff; stroke-opacity: 0.7; stroke-width: 0.5"/>
     <use xlink:href="#m2d96ee4f9a" x="85.426353" y="225.880077" style="fill: #1b365d; fill-opacity: 0.7; stroke: #ffffff; stroke-opacity: 0.7; stroke-width: 0.5"/>
     <use xlink:href="#m2d96ee4f9a" x="113.095775" y="200.521586" style="fill: #1b365d; fill-opacity: 0.7; stroke: #ffffff; stroke-opacity: 0.7; stroke-width: 0.5"/>
     <use xlink:href="#m2d96ee4f9a" x="154.599907" y="166.710265" style="fill: #1b365d; fill-opacity: 0.7; stroke: #ffffff; stroke-opacity: 0.7; stroke-width: 0.5"/>
     <use xlink:href="#m2d96ee4f9a" x="196.104039" y="149.804605" style="fill: #1b365d; fill-opacity: 0.7; stroke: #ffffff; stroke-opacity: 0.7; stroke-width: 0.5"/>
     <use xlink:href="#m2d96ee4f9a" x="209.93875" y="141.351775" style="fill: #1b365d; fill-opacity: 0.7; stroke: #ffffff; stroke-opacity: 0.7; stroke-width: 0.5"/>
     <use xlink:href="#m2d96ee4f9a" x="265.277593" y="90.634794" style="fill: #1b365d; fill-opacity: 0.7; stroke: #ffffff; stroke-opacity: 0.7; stroke-width: 0.5"/>
     <use xlink:href="#m2d96ee4f9a" x="306.781725" y="73.729133" style="fill: #1b365d; fill-opacity: 0.7; stroke: #ffffff; stroke-opacity: 0.7; stroke-width: 0.5"/>
     <use xlink:href="#m2d96ee4f9a" x="320.616436" y="65.276303" style="fill: #1b365d; fill-opacity: 0.7; stroke: #ffffff; stroke-opacity: 0.7; stroke-width: 0.5"/>
    </g>
   </g>
   <g id="legend_1">
    <g id="patch_8">
     <path d="M 245.13875 246.597812 
L 370.33875 246.597812 
Q 372.33875 246.597812 372.33875 244.597812 
L 372.33875 229.297812 
Q 372.33875 227.297812 370.33875 227.297812 
L 245.13875 227.297812 
Q 243.13875 227.297812 243.13875 229.297812 
L 243.13875 244.597812 
Q 243.13875 246.597812 245.13875 246.597812 
z
" style="fill: #ffffff; opacity: 0.8; stroke: #cccccc; stroke-linejoin: miter"/>
    </g>
    <g id="line2d_24">
     <path d="M 247.13875 236.997812 
L 257.13875 236.997812 
L 267.13875 236.997812 
" style="fill: none; stroke: #c41e3a; stroke-width: 2; stroke-linecap: square"/>
    </g>
    <g id="text_16">
     <!-- $\hat{y} = 2.10x + -1.00$ -->
     <g transform="translate(275.13875 240.497812) scale(0.1 -0.1)">
      <defs>
       <path id="DejaVuSans-302" d="M -1831 5119 
L -1369 5119 
L -603 3944 
L -1038 3944 
L -1600 4709 
L -2163 3944 
L -2597 3944 
L -1831 5119 
z
M -1600 3584 
L -1600 3584 
z
" transform="scale(0.015625)"/>
       <path id="DejaVuSans-Oblique-79" d="M 1588 -325 
Q 1188 -997 936 -1164 
Q 684 -1331 294 -1331 
L -159 -1331 
L -63 -850 
L 269 -850 
Q 509 -850 678 -719 
Q 847 -588 1056 -206 
L 1234 128 
L 459 3500 
L 1069 3500 
L 1650 819 
L 3256 3500 
L 3859 3500 
L 1588 -325 
z
" transform="scale(0.015625)"/>
       <path id="DejaVuSans-Oblique-78" d="M 3841 3500 
L 2234 1784 
L 3219 0 
L 2559 0 
L 1819 1388 
L 531 0 
L -166 0 
L 1556 1844 
L 641 3500 
L 1300 3500 
L 1972 2234 
L 3144 3500 
L 3841 3500 
z
" transform="scale(0.015625)"/>
       <path id="DejaVuSans-2b" d="M 2944 4013 
L 2944 2272 
L 4684 2272 
L 4684 1741 
L 2944 1741 
L 2944 0 
L 2419 0 
L 2419 1741 
L 678 1741 
L 678 2272 
L 2419 2272 
L 2419 4013 
L 2944 4013 
z
" transform="scale(0.015625)"/>
       <path id="DejaVuSans-2212" d="M 678 2272 
L 4684 2272 
L 4684 1741 
L 678 1741 
L 678 2272 
z
" transform="scale(0.015625)"/>
      </defs>
      <use xlink:href="#DejaVuSans-302" transform="translate(62.373047 12.015625)"/>
      <use xlink:href="#DejaVuSans-Oblique-79" transform="translate(0 0.828125)"/>
      <use xlink:href="#DejaVuSans-3d" transform="translate(78.662109 0.828125)"/>
      <use xlink:href="#DejaVuSans-32" transform="translate(181.933594 0.828125)"/>
      <use xlink:href="#DejaVuSans-2e" transform="translate(245.556641 0.828125)"/>
      <use xlink:href="#DejaVuSans-31" transform="translate(277.34375 0.828125)"/>
      <use xlink:href="#DejaVuSans-30" transform="translate(340.966797 0.828125)"/>
      <use xlink:href="#DejaVuSans-Oblique-78" transform="translate(404.589844 0.828125)"/>
      <use xlink:href="#DejaVuSans-2b" transform="translate(483.251953 0.828125)"/>
      <use xlink:href="#DejaVuSans-2212" transform="translate(606.005859 0.828125)"/>
      <use xlink:href="#DejaVuSans-31" transform="translate(709.277344 0.828125)"/>
      <use xlink:href="#DejaVuSans-2e" transform="translate(772.900391 0.828125)"/>
      <use xlink:href="#DejaVuSans-30" transform="translate(804.6875 0.828125)"/>
      <use xlink:href="#DejaVuSans-30" transform="translate(868.310547 0.828125)"/>
     </g>
    </g>
   </g>
  </g>
 </g>
 <defs>
  <clipPath id="p5d5403a846">
   <rect x="42.53875" y="29.837812" width="334.8" height="221.76"/>
  </clipPath>
 </defs>
</svg>
